<mxfile host="app.diagrams.net" modified="2023-11-19T08:59:42.978Z" agent="Mozilla/5.0 (Windows NT 10.0; Win64; x64) AppleWebKit/537.36 (KHTML, like Gecko) Chrome/119.0.0.0 Safari/537.36 Edg/119.0.0.0" etag="XjQ6q0ObEO0448i89Zbw" version="22.1.3" type="github">
  <diagram name="Page-1" id="8h0VownDosk3Yveif7Ke">
    <mxGraphModel dx="1253" dy="711" grid="1" gridSize="10" guides="1" tooltips="1" connect="1" arrows="1" fold="1" page="1" pageScale="1" pageWidth="850" pageHeight="1100" math="0" shadow="0">
      <root>
        <mxCell id="0" />
        <mxCell id="1" parent="0" />
        <mxCell id="dHmi4hHgpPzvi-Dlahb0-1" value="&lt;font style=&quot;font-size: 19px;&quot;&gt;State&lt;br&gt;&lt;br&gt;Output&lt;/font&gt;" style="shape=ellipse;html=1;dashed=0;whiteSpace=wrap;aspect=fixed;perimeter=ellipsePerimeter;" vertex="1" parent="1">
          <mxGeometry x="120" y="200" width="150" height="150" as="geometry" />
        </mxCell>
        <mxCell id="dHmi4hHgpPzvi-Dlahb0-3" value="" style="curved=1;endArrow=classic;html=1;rounded=0;" edge="1" parent="1">
          <mxGeometry width="50" height="50" relative="1" as="geometry">
            <mxPoint x="194" y="200" as="sourcePoint" />
            <mxPoint x="394" y="200" as="targetPoint" />
            <Array as="points">
              <mxPoint x="294" y="80" />
            </Array>
          </mxGeometry>
        </mxCell>
        <mxCell id="dHmi4hHgpPzvi-Dlahb0-5" value="&lt;font style=&quot;font-size: 19px;&quot;&gt;Input&lt;/font&gt;" style="edgeLabel;html=1;align=center;verticalAlign=middle;resizable=0;points=[];" vertex="1" connectable="0" parent="dHmi4hHgpPzvi-Dlahb0-3">
          <mxGeometry x="0.3153" y="-33" relative="1" as="geometry">
            <mxPoint as="offset" />
          </mxGeometry>
        </mxCell>
        <mxCell id="dHmi4hHgpPzvi-Dlahb0-6" value="&lt;span style=&quot;font-size: 19px;&quot;&gt;State&lt;/span&gt;" style="shape=ellipse;html=1;dashed=0;whiteSpace=wrap;aspect=fixed;perimeter=ellipsePerimeter;" vertex="1" parent="1">
          <mxGeometry x="474" y="200" width="150" height="150" as="geometry" />
        </mxCell>
        <mxCell id="dHmi4hHgpPzvi-Dlahb0-7" value="" style="curved=1;endArrow=classic;html=1;rounded=0;" edge="1" parent="1">
          <mxGeometry width="50" height="50" relative="1" as="geometry">
            <mxPoint x="548" y="200" as="sourcePoint" />
            <mxPoint x="748" y="200" as="targetPoint" />
            <Array as="points">
              <mxPoint x="648" y="80" />
            </Array>
          </mxGeometry>
        </mxCell>
        <mxCell id="dHmi4hHgpPzvi-Dlahb0-8" value="&lt;font style=&quot;font-size: 19px;&quot;&gt;Input / &lt;br&gt;Output&lt;/font&gt;" style="edgeLabel;html=1;align=center;verticalAlign=middle;resizable=0;points=[];" vertex="1" connectable="0" parent="dHmi4hHgpPzvi-Dlahb0-7">
          <mxGeometry x="0.3153" y="-33" relative="1" as="geometry">
            <mxPoint as="offset" />
          </mxGeometry>
        </mxCell>
        <mxCell id="dHmi4hHgpPzvi-Dlahb0-9" value="&lt;font style=&quot;font-size: 25px;&quot;&gt;Moore FSM&amp;nbsp;&lt;/font&gt;" style="text;html=1;strokeColor=none;fillColor=none;align=left;verticalAlign=middle;whiteSpace=wrap;rounded=0;" vertex="1" parent="1">
          <mxGeometry x="120" y="90" width="250" height="30" as="geometry" />
        </mxCell>
        <mxCell id="dHmi4hHgpPzvi-Dlahb0-10" value="&lt;font style=&quot;font-size: 25px;&quot;&gt;&lt;b&gt;State Graph&lt;/b&gt;&lt;/font&gt;" style="text;html=1;strokeColor=none;fillColor=none;align=center;verticalAlign=middle;whiteSpace=wrap;rounded=0;" vertex="1" parent="1">
          <mxGeometry x="60" y="40" width="190" height="30" as="geometry" />
        </mxCell>
        <mxCell id="dHmi4hHgpPzvi-Dlahb0-13" value="&lt;font style=&quot;font-size: 25px;&quot;&gt;Mealy FSM&amp;nbsp;&lt;/font&gt;" style="text;html=1;strokeColor=none;fillColor=none;align=left;verticalAlign=middle;whiteSpace=wrap;rounded=0;" vertex="1" parent="1">
          <mxGeometry x="480" y="90" width="250" height="30" as="geometry" />
        </mxCell>
      </root>
    </mxGraphModel>
  </diagram>
</mxfile>
